<svg width="100" height="53" viewBox="0 0 100 53" fill="none" xmlns="http://www.w3.org/2000/svg">
<path fill-rule="evenodd" clip-rule="evenodd" d="M0.169645 0.842189C0.282714 1.94256 0.823369 3.94226 1.32786 5.12631C2.45707 7.77644 4.38478 9.73248 6.84532 10.725C8.9147 11.5598 10.4158 11.723 16.0382 11.7244C22.6996 11.726 24.2298 11.9666 25.5583 13.2213C26.5184 14.1282 26.8873 14.9841 26.8873 16.3048C26.8873 17.5161 26.5041 18.5201 25.8092 19.1294C24.8558 19.9654 21.5048 20.6223 15.1647 21.216C10.4751 21.6552 3.62919 22.0954 1.45186 22.0977L0.152239 22.0991L0.0592743 28.6008C0.00813679 32.1768 -0.0142612 36.3356 0.00948608 37.8426L0.0527978 40.5826L1.33461 39.4801C2.03961 38.8736 3.34503 37.7659 4.23555 37.0183C5.12607 36.2709 6.34042 35.2233 6.9341 34.6905C9.31651 32.5524 13.4949 29.1667 14.8948 28.2402C15.7111 27.6998 17.5934 26.5721 19.0776 25.7339C20.5618 24.8959 24.1745 22.808 27.1058 21.0942C30.0371 19.3805 33.8513 17.1621 35.5818 16.1645L38.7283 14.3509L38.6701 13.475C38.5554 11.7456 37.2669 8.63372 35.9639 6.93964C33.7835 4.10476 30.9121 2.02867 27.6739 0.945813C26.941 0.700702 25.7114 0.448988 24.4072 0.277181C22.4463 0.018865 21.6222 0.00161701 11.1994 0.000808508L0.0830216 0L0.169645 0.842189ZM92.9504 0.22665C90.6992 0.459229 88.5616 1.30654 86.9249 2.6151C86.3939 3.0397 85.3617 4.09331 84.6312 4.95639C83.9007 5.8196 82.7218 7.16467 82.0114 7.94542C81.301 8.7263 79.3582 11.0024 77.694 13.0034C76.0298 15.0044 74.2695 17.0661 73.7824 17.5849C72.8718 18.5546 71.3798 20.3357 68.9565 23.3455C68.1958 24.2904 67.5233 25.0636 67.4623 25.0636C67.2092 25.0636 65.0467 22.6216 62.3911 19.3367C59.0447 15.1975 57.835 13.8793 57.3829 13.8793C56.8449 13.8793 55.3419 14.5131 52.9461 15.7507C50.214 17.1619 44.5364 20.388 42.328 21.784L40.7519 22.7803L40.6414 23.5514C40.5807 23.9755 40.5312 28.5367 40.5313 33.6876C40.5315 42.9916 40.5335 43.0597 40.8349 44.1186C41.4305 46.2111 42.0923 47.2932 43.9624 49.232C45.5736 50.9023 46.7356 51.6373 48.6942 52.2244C49.4423 52.4487 51.5602 52.8221 52.0843 52.8221H52.4708L52.5396 25.5659L54.0355 27.3023C58.2021 32.1385 64.8794 40.2832 65.7915 41.6418C66.7827 43.1182 66.7753 43.1147 67.5452 42.4641C68.5768 41.5927 70.7437 39.1273 75.615 33.2833C81.8579 25.7938 82.021 25.6026 82.1644 25.6026C82.2425 25.6026 82.2911 30.8259 82.2911 39.2322V52.8616L83.2734 52.7787C84.6714 52.6607 86.4516 52.1207 88.093 51.317C89.3409 50.7057 89.6638 50.4692 90.8038 49.3309C91.9406 48.1955 92.1825 47.8667 92.7958 46.6236C93.6131 44.9663 93.975 43.6447 94.1546 41.6602C94.5574 37.2085 94.8062 5.3764 94.4636 2.1304C94.3721 1.26396 94.2611 0.460442 94.2165 0.344961C94.1369 0.137445 93.9672 0.12168 92.9504 0.22665ZM40.5985 13.6134L41.1045 13.3982C41.3828 13.2798 43.2195 12.5155 45.186 11.6996C52.0301 8.8601 52.8769 8.47701 52.8769 8.21977C52.8769 7.51934 50.0627 4.28344 48.301 2.95804C46.3722 1.50705 43.7149 0.43713 41.7117 0.30494L40.5985 0.231501V13.6134ZM0.255189 17.787H10.4359C18.0416 17.787 20.706 17.7463 20.9703 17.626C21.3781 17.4405 21.7087 16.8792 21.7087 16.3722C21.7087 15.9005 21.3689 15.2734 20.9989 15.0624C20.7624 14.9274 18.4754 14.8817 10.4759 14.8522L0.255189 14.8145V17.787ZM8.59357 43.4295C5.73041 46.1595 2.51684 49.7793 0.669821 52.3552L0.207425 53L4.2454 52.9063C6.46631 52.8549 8.69315 52.7759 9.19414 52.7308L10.1049 52.6487L10.1029 47.5811C10.1017 44.7941 10.0543 42.4407 9.99749 42.3515C9.92774 42.2419 9.47195 42.592 8.59357 43.4295Z" fill="white"/>
</svg>
